<?xml version="1.0" encoding="utf-8"?>
<!-- Generator: Adobe Illustrator 26.5.1, SVG Export Plug-In . SVG Version: 6.00 Build 0)  -->
<svg version="1.1" id="Layer_1" xmlns="http://www.w3.org/2000/svg" xmlns:xlink="http://www.w3.org/1999/xlink" x="0px" y="0px"
	 viewBox="0 0 4000 1500" style="enable-background:new 0 0 4000 1500;" xml:space="preserve">
<linearGradient id="SVGID_1_" gradientUnits="userSpaceOnUse" x1="2000" y1="1080" x2="2000" y2="-420" gradientTransform="matrix(1 0 0 1 0 420)">
	<stop  offset="0" style="stop-color:#F9B2A8"/>
	<stop  offset="1" style="stop-color:#3D54A5"/>
</linearGradient>
<rect style="fill:url(#SVGID_1_);" width="4000" height="1500"/>
<rect style="opacity:0.64;fill:#741018;stroke:#000000;stroke-miterlimit:10;enable-background:new    ;" width="4000" height="1500"/>
<rect y="585.6" style="fill:#3B3B3C;stroke:#000000;stroke-miterlimit:10;" width="325" height="914.4"/>
<rect y="997.1" style="fill:#3B3B3C;" width="4000" height="511.5"/>
<rect x="307.7" y="770.2" style="fill:#3B3B3C;" width="153.8" height="272.6"/>
<rect x="494.2" y="470.2" style="fill:#3B3B3C;" width="242.3" height="817.3"/>
<rect x="875" y="760.6" style="fill:#3B3B3C;" width="138.5" height="342.2999"/>
<rect x="1419.2" y="387.5" style="fill:#3B3B3C;" width="292.3" height="782.7"/>
<rect x="2107.7" y="793.3" style="fill:#3B3B3C;" width="119.2" height="407.7"/>
<rect x="3432.7" y="431.7" style="fill:#3B3B3C;" width="351.8999" height="871.2"/>
<rect x="3784.6001" y="270.2" style="fill:#3B3B3C;" width="190.3999" height="859.6"/>
<rect x="3921.2" y="549" style="fill:#3B3B3C;" width="78.8" height="621.2"/>
<rect x="3301.8999" y="750" style="fill:#3B3B3C;" width="148.1001" height="352.9"/>
<rect x="162.5" y="510.6" style="fill:#141414;" width="247.1" height="998.1"/>
<rect y="770.2" style="fill:#141414;" width="150" height="738.4999"/>
<rect y="1102.9" style="fill:#141414;" width="1515.4" height="405.7999"/>
<rect x="1144.2" y="566.3" style="fill:#141414;" width="275" height="911.5001"/>
<rect x="780.8" y="604.8" style="fill:#141414;" width="111.5" height="767.3"/>
<rect x="1494.2" y="1102.9" style="fill:#141414;" width="2505.8" height="405.7999"/>
<rect x="1742.3" y="645.2" style="fill:#141414;" width="257.7" height="807.7"/>
<rect x="1969.2" y="843.3" style="fill:#141414;" width="138.5" height="528.8"/>
<rect x="2475" y="824" style="fill:#141414;" width="225" height="571.2"/>
<rect x="2638.5" y="431.7" style="fill:#141414;" width="328.8" height="974.9999"/>
<rect x="3403.8" y="645.2" style="fill:#141414;" width="153.8" height="711.4999"/>
<rect x="3523.1001" y="302.9" style="fill:#141414;" width="319.2" height="1069.2"/>
<rect x="3803.8" y="722.1" style="fill:#141414;" width="142.3" height="565.4"/>
</svg>
