<?xml version="1.0" encoding="utf-8"?>
<!-- Generator: Adobe Illustrator 26.5.1, SVG Export Plug-In . SVG Version: 6.00 Build 0)  -->
<svg version="1.1" id="Layer_1" xmlns="http://www.w3.org/2000/svg" xmlns:xlink="http://www.w3.org/1999/xlink" x="0px" y="0px"
	 viewBox="0 0 4000 1500" style="enable-background:new 0 0 4000 1500;" xml:space="preserve">
<linearGradient id="SVGID_1_" gradientUnits="userSpaceOnUse" x1="2000" y1="-9.094947e-13" x2="2000" y2="1500" gradientTransform="matrix(1 0 0 -1 0 1500)">
	<stop  offset="0" style="stop-color:#F9B2A8"/>
	<stop  offset="1" style="stop-color:#3D54A5"/>
</linearGradient>
<rect style="fill:url(#SVGID_1_);" width="4000" height="1500"/>
<rect y="0" style="opacity:0.64;fill:#741018;stroke:#000000;stroke-miterlimit:10;" width="4000" height="1500"/>
<rect y="585.5769" style="fill:#3B3B3C;stroke:#000000;stroke-miterlimit:10;" width="325" height="914.4231"/>
<rect y="997.1154" style="fill:#3B3B3C;" width="4000" height="511.5385"/>
<rect x="307.6923" y="770.1923" style="fill:#3B3B3C;" width="153.8462" height="272.5962"/>
<rect x="494.2308" y="470.1923" style="fill:#3B3B3C;" width="242.3077" height="817.3077"/>
<rect x="875" y="760.5769" style="fill:#3B3B3C;" width="138.4615" height="342.3077"/>
<rect x="1419.2307" y="387.5" style="fill:#3B3B3C;" width="292.3077" height="782.6923"/>
<rect x="2107.6924" y="793.2692" style="fill:#3B3B3C;" width="119.2308" height="407.6923"/>
<rect x="3432.6924" y="431.7308" style="fill:#3B3B3C;" width="351.9231" height="871.1539"/>
<rect x="3784.6155" y="270.1923" style="fill:#3B3B3C;" width="190.3846" height="859.6154"/>
<rect x="3921.1538" y="549.0385" style="fill:#3B3B3C;" width="78.8462" height="621.1539"/>
<rect x="3301.9231" y="750" style="fill:#3B3B3C;" width="148.0769" height="352.8846"/>
<rect x="162.5" y="510.5769" style="fill:#141414;" width="247.1154" height="998.0769"/>
<rect y="770.1923" style="fill:#141414;" width="150" height="738.4615"/>
<rect y="1102.8846" style="fill:#141414;" width="1515.3846" height="398.0769"/>
<rect x="1144.2307" y="566.3461" style="fill:#141414;" width="275" height="911.5385"/>
<rect x="780.7692" y="604.8077" style="fill:#141414;" width="111.5385" height="767.3077"/>
<rect x="1494.2307" y="1102.8846" style="fill:#141414;" width="2505.7693" height="405.7692"/>
<rect x="1742.3077" y="645.1923" style="fill:#141414;" width="257.6923" height="807.6923"/>
<rect x="1969.2307" y="843.2692" style="fill:#141414;" width="138.4615" height="528.8461"/>
<rect x="2475" y="824.0385" style="fill:#141414;" width="225" height="571.1539"/>
<rect x="2638.4614" y="431.7308" style="fill:#141414;" width="328.8462" height="975"/>
<rect x="3403.8462" y="645.1923" style="fill:#141414;" width="153.8462" height="711.5385"/>
<rect x="3523.0769" y="302.8846" style="fill:#141414;" width="319.2308" height="1069.2307"/>
<rect x="3803.8462" y="722.1154" style="fill:#141414;" width="142.3077" height="565.3846"/>
</svg>
