<?xml version="1.0" encoding="utf-8"?>
<!-- Generator: Adobe Illustrator 26.5.1, SVG Export Plug-In . SVG Version: 6.00 Build 0)  -->
<svg version="1.1" id="Layer_1" xmlns="http://www.w3.org/2000/svg" xmlns:xlink="http://www.w3.org/1999/xlink" x="0px" y="0px"
	 viewBox="0 0 1000 300" style="enable-background:new 0 0 1000 300;" xml:space="preserve">
<rect y="61" style="fill:#44454E;" width="1000" height="241.0289"/>
<rect x="269" y="174.2717" transform="matrix(-1.836970e-16 1 -1 -1.836970e-16 550.1839 -187.155)" style="fill:#FBF068;" width="199.3389" height="14.4855"/>
<rect x="80" y="167.0289" style="fill:#FBF068;" width="131" height="14.4855"/>
<rect x="812.5" y="167.0289" style="fill:#FBF068;" width="131" height="14.4855"/>
<rect x="306.5733" y="174.2717" transform="matrix(-1.836970e-16 1 -1 -1.836970e-16 587.7573 -224.7283)" style="fill:#FBF068;" width="199.3389" height="14.4855"/>
<rect x="345.0878" y="174.2717" transform="matrix(-1.836970e-16 1 -1 -1.836970e-16 626.2717 -263.2428)" style="fill:#FBF068;" width="199.3389" height="14.4855"/>
<rect x="385.845" y="174.2717" transform="matrix(-1.836970e-16 1 -1 -1.836970e-16 667.0289 -304)" style="fill:#FBF068;" width="199.3389" height="14.4855"/>
<rect x="425.3306" y="174.2717" transform="matrix(-1.836970e-16 1 -1 -1.836970e-16 706.5145 -343.4855)" style="fill:#FBF068;" width="199.3389" height="14.4855"/>
<rect x="464.3306" y="174.2717" transform="matrix(-1.836970e-16 1 -1 -1.836970e-16 745.5145 -382.4855)" style="fill:#FBF068;" width="199.3389" height="14.4855"/>
<rect x="503.3306" y="174.2717" transform="matrix(-1.836970e-16 1 -1 -1.836970e-16 784.5145 -421.4855)" style="fill:#FBF068;" width="199.3389" height="14.4855"/>
<rect x="542.3306" y="174.2717" transform="matrix(-1.836970e-16 1 -1 -1.836970e-16 823.5145 -460.4855)" style="fill:#FBF068;" width="199.3389" height="14.4855"/>
<rect x="649.2428" y="48.5" style="fill:#8E8E8E;" width="350.7572" height="25"/>
<rect y="48.5" style="fill:#8E8E8E;" width="361.4267" height="25"/>
<rect y="61" style="fill:#8E8E8E;" width="1000" height="12.5"/>
<ellipse style="fill:#3E3E40;" cx="52" cy="107.5289" rx="28" ry="8.5"/>
<ellipse style="fill:#3E3E40;" cx="99" cy="126.0289" rx="10" ry="4"/>
<ellipse style="fill:#3E3E40;" cx="299.5" cy="244.5289" rx="27.5" ry="15.5"/>
<circle style="fill:#3E3E40;" cx="253.25" cy="265.2789" r="5.25"/>
<ellipse style="fill:#3E3E40;" cx="702.5" cy="104.5289" rx="30.5" ry="11.5"/>
<ellipse style="fill:#3E3E40;" cx="718.5" cy="136.5289" rx="9.5" ry="6.5"/>
<ellipse style="fill:#3E3E40;" cx="863.5" cy="224.0289" rx="25.5" ry="14"/>
<circle style="fill:#3E3E40;" cx="894.5" cy="194.5289" r="5.5"/>
<ellipse style="fill:#3E3E40;" cx="718" cy="292.0289" rx="22" ry="5"/>
<ellipse style="fill:#3E3E40;" cx="741" cy="273.7789" rx="8" ry="3.25"/>
<circle style="fill:#3E3E40;" cx="390.25" cy="129.2789" r="7.25"/>
<ellipse style="fill:#3E3E40;" cx="467" cy="148.2789" rx="3" ry="11.75"/>
<circle style="fill:#3E3E40;" cx="545.5" cy="106.0289" r="1.5"/>
</svg>
