<?xml version="1.0" encoding="utf-8"?>
<!-- Generator: Adobe Illustrator 26.5.1, SVG Export Plug-In . SVG Version: 6.00 Build 0)  -->
<svg version="1.1" id="Layer_1" xmlns="http://www.w3.org/2000/svg" xmlns:xlink="http://www.w3.org/1999/xlink" x="0px" y="0px"
	 viewBox="0 0 1000 300" style="enable-background:new 0 0 1000 300;" xml:space="preserve">
<rect y="58.9711" style="fill:#44454E;" width="1000" height="241.0289"/>
<rect x="269" y="172.2428" transform="matrix(-1.836970e-16 1 -1 -1.836970e-16 548.155 -189.1839)" style="fill:#FBF068;" width="199.3389" height="14.4855"/>
<rect x="80" y="165" style="fill:#FBF068;" width="131" height="14.4855"/>
<rect x="812.5" y="165" style="fill:#FBF068;" width="131" height="14.4855"/>
<rect x="306.5733" y="172.2428" transform="matrix(-1.836970e-16 1 -1 -1.836970e-16 585.7283 -226.7572)" style="fill:#FBF068;" width="199.3389" height="14.4855"/>
<rect x="345.0878" y="172.2428" transform="matrix(-1.836970e-16 1 -1 -1.836970e-16 624.2428 -265.2717)" style="fill:#FBF068;" width="199.3389" height="14.4855"/>
<rect x="385.845" y="172.2428" transform="matrix(-1.836970e-16 1 -1 -1.836970e-16 665 -306.0289)" style="fill:#FBF068;" width="199.3389" height="14.4855"/>
<rect x="425.3306" y="172.2428" transform="matrix(-1.836970e-16 1 -1 -1.836970e-16 704.4855 -345.5145)" style="fill:#FBF068;" width="199.3389" height="14.4855"/>
<rect x="464.3306" y="172.2428" transform="matrix(-1.836970e-16 1 -1 -1.836970e-16 743.4855 -384.5145)" style="fill:#FBF068;" width="199.3389" height="14.4855"/>
<rect x="503.3306" y="172.2428" transform="matrix(-1.836970e-16 1 -1 -1.836970e-16 782.4855 -423.5145)" style="fill:#FBF068;" width="199.3389" height="14.4855"/>
<rect x="542.3306" y="172.2428" transform="matrix(-1.836970e-16 1 -1 -1.836970e-16 821.4855 -462.5145)" style="fill:#FBF068;" width="199.3389" height="14.4855"/>
<rect x="649.2428" y="46.4711" style="fill:#8E8E8E;" width="350.7572" height="25"/>
<rect y="46.4711" style="fill:#8E8E8E;" width="361.4267" height="25"/>
<rect y="58.9711" style="fill:#8E8E8E;" width="1000" height="12.5"/>
<ellipse style="fill:#3E3E40;" cx="52" cy="105.5" rx="28" ry="8.5"/>
<ellipse style="fill:#3E3E40;" cx="99" cy="124" rx="10" ry="4"/>
<ellipse style="fill:#3E3E40;" cx="299.5" cy="242.5" rx="27.5" ry="15.5"/>
<circle style="fill:#3E3E40;" cx="253.25" cy="263.25" r="5.25"/>
<ellipse style="fill:#3E3E40;" cx="702.5" cy="102.5" rx="30.5" ry="11.5"/>
<ellipse style="fill:#3E3E40;" cx="718.5" cy="134.5" rx="9.5" ry="6.5"/>
<ellipse style="fill:#3E3E40;" cx="863.5" cy="222" rx="25.5" ry="14"/>
<circle style="fill:#3E3E40;" cx="894.5" cy="192.5" r="5.5"/>
<ellipse style="fill:#3E3E40;" cx="718" cy="290" rx="22" ry="5"/>
<ellipse style="fill:#3E3E40;" cx="741" cy="271.75" rx="8" ry="3.25"/>
<circle style="fill:#3E3E40;" cx="390.25" cy="127.25" r="7.25"/>
<ellipse style="fill:#3E3E40;" cx="467" cy="146.25" rx="3" ry="11.75"/>
<circle style="fill:#3E3E40;" cx="545.5" cy="104" r="1.5"/>
</svg>
