<?xml version="1.0" encoding="utf-8"?>
<!-- Generator: Adobe Illustrator 26.5.1, SVG Export Plug-In . SVG Version: 6.00 Build 0)  -->
<svg version="1.1" id="running2" xmlns="http://www.w3.org/2000/svg" xmlns:xlink="http://www.w3.org/1999/xlink" x="0px" y="0px"
	 viewBox="0 0 237.6 378" style="enable-background:new 0 0 237.6 378;" xml:space="preserve">
<g>
	<circle style="fill:#231F20;stroke:#231F20;stroke-miterlimit:10;" cx="160.7471" cy="203.2884" r="11.8567"/>
	<ellipse style="fill:#825C43;stroke:#ED2024;stroke-miterlimit:10;" cx="167.766" cy="203.2884" rx="4.1485" ry="2.2817"/>
	
		<ellipse transform="matrix(0.1769 -0.9842 0.9842 0.1769 -72.959 334.6473)" style="fill:#825C43;stroke:#ED2024;stroke-width:1;stroke-miterlimit:9.9994;" cx="163.6002" cy="210.9445" rx="2.2815" ry="2.0741"/>
	<ellipse style="fill:#825C43;stroke:#ED2024;stroke-miterlimit:10;" cx="158.2692" cy="204.0321" rx="4.1485" ry="2.2817"/>
</g>
<circle style="fill:#231F20;stroke:#231F20;stroke-miterlimit:10;" cx="169.41" cy="203.2884" r="0.7438"/>
<circle style="fill:#231F20;stroke:#231F20;stroke-miterlimit:10;" cx="159.7568" cy="204.0321" r="0.7438"/>
<g>
	<g>
		
			<ellipse transform="matrix(0.2588 -0.9659 0.9659 0.2588 -149.3301 291.0436)" style="fill:#231F20;stroke:#231F20;stroke-width:1;stroke-miterlimit:9.9994;" cx="114.9803" cy="242.826" rx="16.5962" ry="4.2908"/>
		<line style="fill:none;stroke:#231F20;stroke-miterlimit:10;" x1="119.1416" y1="243.9368" x2="122.0111" y2="233.1817"/>
	</g>
	<circle style="fill:#231F20;stroke:#231F20;stroke-miterlimit:10;" cx="116.6304" cy="231.065" r="5.7471"/>
	<line style="fill:none;stroke:#231F20;stroke-miterlimit:10;" x1="110.4467" y1="243.3102" x2="111.2045" y2="229.1874"/>
	<ellipse style="fill:#231F20;stroke:#231F20;stroke-miterlimit:10;" cx="112.3243" cy="237.7475" rx="1.405" ry="3.8215"/>
</g>
<g>
	
		<ellipse transform="matrix(0.9626 -0.271 0.271 0.9626 -53.8065 49.4824)" style="fill:#231F20;stroke:#231F20;stroke-width:1;stroke-miterlimit:10.0004;" cx="152.276" cy="219.5783" rx="4.6432" ry="4.0046"/>
	
		<ellipse transform="matrix(0.3399 -0.9405 0.9405 0.3399 -111.0334 269.9822)" style="fill:#231F20;stroke:#231F20;stroke-width:1;stroke-miterlimit:10.0008;" cx="136.8059" cy="214.0861" rx="3.0261" ry="10.7922"/>
	<polygon style="fill:#231F20;stroke:#231F20;stroke-miterlimit:10;" points="135.3089,216.7772 148.3316,221.6696 
		151.2934,216.3116 138.2706,211.4192 	"/>
</g>
<g>
	<ellipse style="fill:#231F20;stroke:#231F20;stroke-miterlimit:10;" cx="127.5808" cy="211.4192" rx="3.1483" ry="2.5954"/>
	<g>
		<ellipse style="fill:#231F20;stroke:#231F20;stroke-miterlimit:10;" cx="102.942" cy="211.4192" rx="6.2649" ry="2.4758"/>
		<line style="fill:none;stroke:#231F20;stroke-miterlimit:10;" x1="94.1562" y1="211.4192" x2="101.8565" y2="211.4192"/>
		<rect x="103.1564" y="208.9415" style="fill:#231F20;stroke:#231F20;stroke-miterlimit:10;" width="24.4599" height="4.9554"/>
	</g>
</g>
<g>
	<g>
		<g>
			<g>
				<polygon style="fill:#231F20;stroke:#231F20;stroke-miterlimit:10;" points="123.4926,233.7534 116.2697,224.3341 
					140.0763,211.3494 147.2991,220.7687 				"/>
				<polygon style="fill:#231F20;stroke:#231F20;stroke-miterlimit:10;" points="137.557,225.7308 130.7351,217.1542 
					136.1311,207.8833 148.3489,207.1889 155.1707,215.7655 149.7748,225.0364 				"/>
			</g>
			
				<ellipse transform="matrix(0.9276 -0.3736 0.3736 0.9276 -76.3473 62.0738)" style="fill:#231F20;stroke:#231F20;stroke-width:1;stroke-miterlimit:10.0002;" cx="121.963" cy="227.9958" rx="11.6623" ry="5.8977"/>
		</g>
		<line style="fill:none;stroke:#ED2024;stroke-miterlimit:10;" x1="153.5247" y1="213.696" x2="151.3412" y2="218.4876"/>
		<line style="fill:none;stroke:#ED2024;stroke-miterlimit:10;" x1="151.3412" y1="218.4876" x2="152.4329" y2="221.6377"/>
	</g>
	<line style="fill:none;stroke:#ED2024;stroke-miterlimit:10;" x1="149.4749" y1="208.6046" x2="142.9529" y2="211.3494"/>
	<line style="fill:none;stroke:#ED2024;stroke-miterlimit:10;" x1="134.2472" y1="211.1199" x2="142.9529" y2="211.3494"/>
</g>
<circle style="fill:#231F20;stroke:#EF3B39;stroke-miterlimit:10;" cx="111.0935" cy="257.3935" r="3.6598"/>
<g>
	
		<ellipse transform="matrix(0.9969 -0.0789 0.0789 0.9969 -20.1446 8.109)" style="fill:#231F20;stroke:#231F20;stroke-width:1;stroke-miterlimit:10.0008;" cx="92.4846" cy="258.8296" rx="15.5865" ry="2.5448"/>
	<polygon style="fill:#231F20;stroke:#231F20;stroke-width:1;stroke-miterlimit:10.0008;" points="92.1749,256.2992 
		111.1462,254.778 111.7355,259.8368 92.7642,261.3579 	"/>
</g>
<rect x="72.3674" y="258.9731" style="fill:#231F20;stroke:#231F20;stroke-miterlimit:10;" width="4.4198" height="1.7284"/>
<g>
	<polygon style="fill:#231F20;stroke:#231F20;stroke-width:1;stroke-miterlimit:10.0002;" points="66.3181,264.4844 
		70.3497,256.7755 72.9211,258.4407 68.8894,266.1497 	"/>
	<polygon style="fill:#231F20;stroke:#231F20;stroke-width:1;stroke-miterlimit:10.0002;" points="64.1105,268.7053 
		68.3338,260.6299 69.6195,261.4626 65.3962,269.538 	"/>
</g>
<g>
	<g>
		
			<ellipse transform="matrix(0.5818 -0.8134 0.8134 0.5818 -135.7835 206.6422)" style="fill:#231F20;stroke:#231F20;stroke-width:1.0002;stroke-miterlimit:10.0012;" cx="133.0414" cy="235.3532" rx="4.2914" ry="16.599"/>
		<line style="fill:none;stroke:#231F20;stroke-miterlimit:10;" x1="135.5082" y1="231.8592" x2="126.4475" y2="225.3931"/>
	</g>
	<circle style="fill:#231F20;stroke:#231F20;stroke-miterlimit:10;" cx="122.5749" cy="229.6866" r="5.7471"/>
	<line style="fill:none;stroke:#231F20;stroke-miterlimit:10;" x1="131.8658" y1="239.7793" x2="118.9102" y2="234.1067"/>
	
		<ellipse transform="matrix(0.3514 -0.9362 0.9362 0.3514 -138.4383 272.2934)" style="fill:#231F20;stroke:#231F20;stroke-width:1;stroke-miterlimit:9.9996;" cx="127.3043" cy="236.0624" rx="1.405" ry="3.8213"/>
</g>
<g>
	<g>
		
			<ellipse transform="matrix(0.9154 -0.4025 0.4025 0.9154 -92.6002 84.2455)" style="fill:#231F20;stroke:#231F20;stroke-width:1;stroke-miterlimit:9.9996;" cx="154.1499" cy="262.4516" rx="3.0626" ry="15.607"/>
		
			<rect x="147.2522" y="244.1997" transform="matrix(0.9154 -0.4025 0.4025 0.9154 -89.4135 81.964)" style="fill:#231F20;stroke:#231F20;stroke-width:1;stroke-miterlimit:9.9996;" width="6.1251" height="19.0577"/>
	</g>
	<circle style="fill:#231F20;stroke:#231F20;stroke-miterlimit:10;" cx="146.3727" cy="244.7692" r="3.0716"/>
</g>
<circle style="fill:#EF3B39;stroke:#EF3B39;stroke-miterlimit:10;" cx="146.2139" cy="244.7923" r="3.6598"/>
<rect x="159.215" y="275.7712" transform="matrix(0.9759 -0.2183 0.2183 0.9759 -56.8236 41.6297)" style="fill:#231F20;stroke:#231F20;stroke-width:1;stroke-miterlimit:10.0004;" width="1.5532" height="4.42"/>
<g>
	
		<rect x="161.4604" y="276.9342" transform="matrix(0.118 -0.993 0.993 0.118 -135.259 409.5996)" style="fill:#231F20;stroke:#231F20;stroke-width:1;stroke-miterlimit:9.9998;" width="2.9751" height="8.0149"/>
	
		<rect x="166.2853" y="277.9777" transform="matrix(0.118 -0.993 0.993 0.118 -132.8848 414.7406)" style="fill:#231F20;stroke:#231F20;stroke-width:1;stroke-miterlimit:9.9998;" width="1.4876" height="8.3959"/>
</g>
<g>
	
		<ellipse transform="matrix(0.9626 -0.271 0.271 0.9626 -50.3801 46.3671)" style="fill:#231F20;stroke:#231F20;stroke-width:1;stroke-miterlimit:10.0004;" cx="142.7086" cy="205.6134" rx="4.6432" ry="4.0046"/>
	
		<ellipse transform="matrix(0.3399 -0.9405 0.9405 0.3399 -104.217 251.7664)" style="fill:#231F20;stroke:#231F20;stroke-width:1;stroke-miterlimit:10.0008;" cx="127.2381" cy="200.1225" rx="3.0261" ry="10.7922"/>
	<polygon style="fill:#231F20;stroke:#231F20;stroke-miterlimit:10;" points="125.7422,202.8127 138.7649,207.7051 
		141.7267,202.347 128.7039,197.4547 	"/>
</g>
<g>
	<ellipse style="fill:#231F20;stroke:#231F20;stroke-miterlimit:10;" cx="118.8267" cy="197.4802" rx="3.1483" ry="2.5954"/>
	<g>
		<ellipse style="fill:#231F20;stroke:#231F20;stroke-miterlimit:10;" cx="94.1879" cy="197.4802" rx="6.2649" ry="2.4758"/>
		<line style="fill:none;stroke:#231F20;stroke-miterlimit:10;" x1="85.4021" y1="197.4802" x2="93.1024" y2="197.4802"/>
		<rect x="94.4023" y="195.0025" style="fill:#231F20;stroke:#231F20;stroke-miterlimit:10;" width="24.4599" height="4.9554"/>
	</g>
</g>
<g>
	<rect x="79.3912" y="195.1203" style="fill:#231F20;stroke:#231F20;stroke-miterlimit:10;" width="6.0109" height="4.9554"/>
	<rect x="71.7926" y="198.1906" style="fill:#825C43;" width="10.1504" height="2.5013"/>
</g>
<g>
	<rect x="88.1057" y="208.6333" style="fill:#231F20;stroke:#231F20;stroke-miterlimit:10;" width="6.0109" height="4.9554"/>
	<rect x="80.5071" y="211.7037" style="fill:#825C43;" width="10.1504" height="2.5013"/>
</g>
</svg>
