<?xml version="1.0" encoding="utf-8"?>
<!-- Generator: Adobe Illustrator 26.5.1, SVG Export Plug-In . SVG Version: 6.00 Build 0)  -->
<svg version="1.1" id="running2" xmlns="http://www.w3.org/2000/svg" xmlns:xlink="http://www.w3.org/1999/xlink" x="0px" y="0px"
	 viewBox="0 0 237.6 378" style="enable-background:new 0 0 237.6 378;" xml:space="preserve">
<g>
	<circle style="fill:#231F20;stroke:#231F20;stroke-miterlimit:10;" cx="204.2648" cy="174.2804" r="23.7134"/>
	<ellipse style="fill:#825C43;stroke:#ED2024;stroke-miterlimit:10;" cx="218.3026" cy="174.2804" rx="8.297" ry="4.5634"/>
	
		<ellipse transform="matrix(0.1769 -0.9842 0.9842 0.1769 -13.7583 362.7195)" style="fill:#825C43;stroke:#ED2024;stroke-width:1;stroke-miterlimit:9.9997;" cx="209.9845" cy="189.5856" rx="4.5633" ry="4.1485"/>
	<ellipse style="fill:#825C43;stroke:#ED2024;stroke-miterlimit:10;" cx="199.309" cy="175.7678" rx="8.297" ry="4.5634"/>
</g>
<circle style="fill:#231F20;stroke:#231F20;stroke-miterlimit:10;" cx="221.5906" cy="174.2804" r="1.4876"/>
<circle style="fill:#231F20;stroke:#231F20;stroke-miterlimit:10;" cx="202.2842" cy="175.7678" r="1.4876"/>
<g>
	<g>
		
			<ellipse transform="matrix(0.866 -0.5 0.5 0.866 -108.6079 82.3774)" style="fill:#231F20;stroke:#231F20;stroke-width:1;stroke-miterlimit:9.9998;" cx="99.4105" cy="243.8486" rx="33.1937" ry="8.5818"/>
		<line style="fill:none;stroke:#231F20;stroke-miterlimit:10;" x1="103.707" y1="251.293" x2="122.975" y2="240.1412"/>
	</g>
	<circle style="fill:#231F20;stroke:#231F20;stroke-miterlimit:10;" cx="118.3592" cy="229.5382" r="11.4942"/>
	<line style="fill:none;stroke:#231F20;stroke-miterlimit:10;" x1="92.2966" y1="238.1104" x2="113.341" y2="219.2094"/>
	
		<ellipse transform="matrix(0.7071 -0.7071 0.7071 0.7071 -134.5695 140.9146)" style="fill:#231F20;stroke:#231F20;stroke-width:1;stroke-miterlimit:9.9999;" cx="102.8142" cy="232.897" rx="7.6429" ry="2.81"/>
</g>
<g>
	
		<ellipse transform="matrix(0.9626 -0.271 0.271 0.9626 -49.047 58.5015)" style="fill:#231F20;stroke:#231F20;stroke-width:1;stroke-miterlimit:10.0002;" cx="187.3145" cy="206.8535" rx="9.2862" ry="8.0089"/>
	
		<ellipse transform="matrix(0.3399 -0.9405 0.9405 0.3399 -81.0003 276.3582)" style="fill:#231F20;stroke:#231F20;stroke-width:1;stroke-miterlimit:10.0004;" cx="156.3644" cy="195.8799" rx="6.052" ry="21.5836"/>
	<polygon style="fill:#231F20;stroke:#231F20;stroke-miterlimit:10;" points="153.3884,201.258 179.4338,211.0428 
		185.3574,200.3268 159.3118,190.542 	"/>
</g>
<g>
	<ellipse style="fill:#231F20;stroke:#231F20;stroke-miterlimit:10;" cx="137.9322" cy="190.542" rx="6.2966" ry="5.1908"/>
	<g>
		<ellipse style="fill:#231F20;stroke:#231F20;stroke-miterlimit:10;" cx="88.6546" cy="190.542" rx="12.5298" ry="4.9516"/>
		<line style="fill:none;stroke:#231F20;stroke-miterlimit:10;" x1="71.083" y1="190.542" x2="86.4836" y2="190.542"/>
		<rect x="89.0834" y="185.5866" style="fill:#231F20;stroke:#231F20;stroke-miterlimit:10;" width="48.9198" height="9.9108"/>
	</g>
</g>
<g>
	<g>
		<g>
			<g>
				<polygon style="fill:#231F20;stroke:#231F20;stroke-miterlimit:10;" points="129.7558,235.2104 115.31,216.3718 
					162.9232,190.4024 177.3688,209.241 				"/>
				<polygon style="fill:#231F20;stroke:#231F20;stroke-miterlimit:10;" points="157.8846,219.1652 144.2408,202.012 
					155.0328,183.4702 179.4684,182.0814 193.112,199.2346 182.3202,217.7764 				"/>
			</g>
			
				<ellipse transform="matrix(0.9276 -0.3736 0.3736 0.9276 -74.397 63.5293)" style="fill:#231F20;stroke:#231F20;stroke-width:1;stroke-miterlimit:10.0001;" cx="126.6928" cy="223.6921" rx="23.3244" ry="11.7951"/>
		</g>
		<line style="fill:none;stroke:#ED2024;stroke-miterlimit:10;" x1="189.82" y1="195.0956" x2="185.453" y2="204.6788"/>
		<line style="fill:none;stroke:#ED2024;stroke-miterlimit:10;" x1="185.453" y1="204.6788" x2="187.6364" y2="210.979"/>
	</g>
	<line style="fill:none;stroke:#ED2024;stroke-miterlimit:10;" x1="181.7204" y1="184.9128" x2="168.6764" y2="190.4024"/>
	<line style="fill:none;stroke:#ED2024;stroke-miterlimit:10;" x1="151.265" y1="189.9434" x2="168.6764" y2="190.4024"/>
</g>
<g>
	
		<ellipse transform="matrix(0.959 -0.2834 0.2834 0.959 -74.743 21.3794)" style="fill:#231F20;stroke:#231F20;stroke-width:1;stroke-miterlimit:10;" cx="36.5209" cy="269.0197" rx="31.2151" ry="6.1252"/>
	
		<rect x="35.7367" y="257.519" transform="matrix(0.959 -0.2834 0.2834 0.959 -72.4704 26.3379)" style="fill:#231F20;stroke:#231F20;stroke-width:1;stroke-miterlimit:10;" width="38.1165" height="12.2506"/>
</g>
<circle style="fill:#EF3B39;stroke:#EF3B39;stroke-miterlimit:10;" cx="73.2946" cy="258.942" r="7.3196"/>
<rect x="-2.269" y="277.8756" style="fill:#231F20;stroke:#231F20;stroke-miterlimit:10;" width="8.8396" height="3.1064"/>
<g>
	
		<rect x="-15.601" y="282.8969" transform="matrix(0.6579 -0.7531 0.7531 0.6579 -217.8862 92.083)" style="fill:#231F20;stroke:#231F20;stroke-width:1;stroke-miterlimit:10;" width="16.0301" height="5.9502"/>
	
		<rect x="-22.6263" y="289.7287" transform="matrix(0.6579 -0.7531 0.7531 0.6579 -224.184 88.9075)" style="fill:#231F20;stroke:#231F20;stroke-width:1;stroke-miterlimit:10;" width="16.7921" height="2.9752"/>
</g>
<g>
	<g>
		
			<ellipse transform="matrix(0.5818 -0.8134 0.8134 0.5818 -131.6665 220.756)" style="fill:#231F20;stroke:#231F20;stroke-width:1.0001;stroke-miterlimit:10.0006;" cx="148.8238" cy="238.4069" rx="8.5825" ry="33.1962"/>
		<line style="fill:none;stroke:#231F20;stroke-miterlimit:10;" x1="153.787" y1="231.422" x2="135.6656" y2="218.4898"/>
	</g>
	
		<ellipse transform="matrix(0.1602 -0.9871 0.9871 0.1602 -116.7148 316.9718)" style="fill:#231F20;stroke:#231F20;stroke-miterlimit:10;" cx="127.9204" cy="227.0768" rx="11.4942" ry="11.4942"/>
	<line style="fill:none;stroke:#231F20;stroke-miterlimit:10;" x1="146.5022" y1="247.2622" x2="120.591" y2="235.917"/>
	
		<ellipse transform="matrix(0.3514 -0.9362 0.9362 0.3514 -135.4193 284.1788)" style="fill:#231F20;stroke:#231F20;stroke-width:1;stroke-miterlimit:9.9998;" cx="137.3919" cy="239.8262" rx="2.8099" ry="7.6428"/>
</g>
<circle style="fill:#EF3B39;stroke:#EF3B39;stroke-miterlimit:10;" cx="175.1984" cy="257.2882" r="7.3196"/>
<g>
	<g>
		
			<ellipse transform="matrix(0.6478 -0.7618 0.7618 0.6478 -142.9077 257.0391)" style="fill:#231F20;stroke:#231F20;stroke-width:1;stroke-miterlimit:9.9999;" cx="206.5371" cy="283.076" rx="6.1252" ry="31.215"/>
		
			<rect x="185.8936" y="251.6716" transform="matrix(0.6478 -0.7618 0.7618 0.6478 -138.6155 241.6307)" style="fill:#231F20;stroke:#231F20;stroke-width:1;stroke-miterlimit:9.9999;" width="12.2505" height="38.1163"/>
	</g>
	<circle style="fill:#231F20;stroke:#231F20;stroke-miterlimit:10;" cx="177.0864" cy="258.0456" r="6.1432"/>
</g>
<rect x="229.0042" y="301.4998" transform="matrix(0.7826 -0.6225 0.6225 0.7826 -140.3175 210.0274)" style="fill:#231F20;stroke:#231F20;stroke-width:1;stroke-miterlimit:9.9998;" width="3.1063" height="8.8395"/>
<g>
	
		<rect x="230.4771" y="305.6144" transform="matrix(0.9449 -0.3275 0.3275 0.9449 -87.9071 95.1195)" style="fill:#231F20;stroke:#231F20;stroke-width:1;stroke-miterlimit:10.0005;" width="16.031" height="5.9505"/>
	
		<rect x="238.5159" y="305.7575" transform="matrix(0.9449 -0.3275 0.3275 0.9449 -87.0025 97.8027)" style="fill:#231F20;stroke:#231F20;stroke-width:1;stroke-miterlimit:10.0005;" width="16.7929" height="2.9753"/>
</g>
<g>
	
		<ellipse transform="matrix(0.9626 -0.271 0.271 0.9626 -42.1943 52.2711)" style="fill:#231F20;stroke:#231F20;stroke-width:1;stroke-miterlimit:10.0002;" cx="168.1803" cy="178.924" rx="9.2862" ry="8.0089"/>
	
		<ellipse transform="matrix(0.3399 -0.9405 0.9405 0.3399 -67.3661 239.9276)" style="fill:#231F20;stroke:#231F20;stroke-width:1;stroke-miterlimit:10.0004;" cx="137.2301" cy="167.9522" rx="6.052" ry="21.5836"/>
	<polygon style="fill:#231F20;stroke:#231F20;stroke-miterlimit:10;" points="134.255,173.329 160.3004,183.1138 166.224,172.3976 
		140.1784,162.613 	"/>
</g>
<g>
	<ellipse style="fill:#231F20;stroke:#231F20;stroke-miterlimit:10;" cx="120.424" cy="162.664" rx="6.2966" ry="5.1908"/>
	<g>
		<ellipse style="fill:#231F20;stroke:#231F20;stroke-miterlimit:10;" cx="71.1464" cy="162.664" rx="12.5298" ry="4.9516"/>
		<line style="fill:none;stroke:#231F20;stroke-miterlimit:10;" x1="53.5748" y1="162.664" x2="68.9754" y2="162.664"/>
		<rect x="71.5752" y="157.7086" style="fill:#231F20;stroke:#231F20;stroke-miterlimit:10;" width="48.9198" height="9.9108"/>
	</g>
</g>
<g>
	<rect x="41.553" y="157.9442" style="fill:#231F20;stroke:#231F20;stroke-miterlimit:10;" width="12.0218" height="9.9108"/>
	<rect x="26.3558" y="164.0848" style="fill:#825C43;" width="20.3008" height="5.0026"/>
</g>
<g>
	<rect x="58.982" y="184.9702" style="fill:#231F20;stroke:#231F20;stroke-miterlimit:10;" width="12.0218" height="9.9108"/>
	<rect x="43.7848" y="191.111" style="fill:#825C43;" width="20.3008" height="5.0026"/>
</g>
</svg>
