<?xml version="1.0" encoding="utf-8"?>
<!-- Generator: Adobe Illustrator 26.5.1, SVG Export Plug-In . SVG Version: 6.00 Build 0)  -->
<svg version="1.1" id="running2" xmlns="http://www.w3.org/2000/svg" xmlns:xlink="http://www.w3.org/1999/xlink" x="0px" y="0px"
	 viewBox="0 0 237.6 378" style="enable-background:new 0 0 237.6 378;" xml:space="preserve">
<g>
	<circle style="fill:#231F20;stroke:#231F20;stroke-miterlimit:10;" cx="160.7471" cy="203.2884" r="11.8567"/>
	<ellipse style="fill:#825C43;stroke:#ED2024;stroke-miterlimit:10;" cx="167.766" cy="203.2884" rx="4.1485" ry="2.2817"/>
	
		<ellipse transform="matrix(0.1769 -0.9842 0.9842 0.1769 -72.949 334.6572)" style="fill:#825C43;stroke:#ED2024;stroke-miterlimit:10;" cx="163.6175" cy="210.9449" rx="2.2817" ry="2.0743"/>
	<ellipse style="fill:#825C43;stroke:#ED2024;stroke-miterlimit:10;" cx="158.2692" cy="204.0321" rx="4.1485" ry="2.2817"/>
</g>
<circle style="fill:#231F20;stroke:#231F20;stroke-miterlimit:10;" cx="169.41" cy="203.2884" r="0.7438"/>
<circle style="fill:#231F20;stroke:#231F20;stroke-miterlimit:10;" cx="159.7568" cy="204.0321" r="0.7438"/>
<g>
	<g>
		
			<ellipse transform="matrix(0.9927 -0.1208 0.1208 0.9927 -28.5253 16.2228)" style="fill:#231F20;stroke:#231F20;stroke-miterlimit:10;" cx="119.5671" cy="243.4301" rx="4.291" ry="16.5972"/>
		<line style="fill:none;stroke:#231F20;stroke-miterlimit:10;" x1="123.8267" y1="242.9119" x2="122.4705" y2="231.8635"/>
	</g>
	<circle style="fill:#231F20;stroke:#231F20;stroke-miterlimit:10;" cx="116.6886" cy="231.9101" r="5.7471"/>
	<line style="fill:none;stroke:#231F20;stroke-miterlimit:10;" x1="115.5272" y1="245.5789" x2="110.9541" y2="232.1956"/>
	
		<ellipse transform="matrix(0.9276 -0.3736 0.3736 0.9276 -81.2146 60.3901)" style="fill:#231F20;stroke:#231F20;stroke-miterlimit:10;" cx="115.1907" cy="239.7175" rx="1.405" ry="3.8215"/>
</g>
<g>
	
		<ellipse transform="matrix(0.9626 -0.271 0.271 0.9626 -53.8036 49.477)" style="fill:#231F20;stroke:#231F20;stroke-miterlimit:10;" cx="152.2657" cy="219.574" rx="4.643" ry="4.0044"/>
	
		<ellipse transform="matrix(0.3399 -0.9405 0.9405 0.3399 -111.0573 269.9669)" style="fill:#231F20;stroke:#231F20;stroke-miterlimit:10;" cx="136.7897" cy="214.0982" rx="3.0259" ry="10.7914"/>
	<polygon style="fill:#231F20;stroke:#231F20;stroke-miterlimit:10;" points="135.3089,216.7772 148.3316,221.6696 
		151.2934,216.3116 138.2706,211.4192 	"/>
</g>
<g>
	<ellipse style="fill:#231F20;stroke:#231F20;stroke-miterlimit:10;" cx="127.5808" cy="211.4192" rx="3.1483" ry="2.5954"/>
	<g>
		<ellipse style="fill:#231F20;stroke:#231F20;stroke-miterlimit:10;" cx="102.942" cy="211.4192" rx="6.2649" ry="2.4758"/>
		<line style="fill:none;stroke:#231F20;stroke-miterlimit:10;" x1="94.1562" y1="211.4192" x2="101.8565" y2="211.4192"/>
		<rect x="103.1564" y="208.9415" style="fill:#231F20;stroke:#231F20;stroke-miterlimit:10;" width="24.4599" height="4.9554"/>
	</g>
</g>
<g>
	<g>
		<g>
			<g>
				<polygon style="fill:#231F20;stroke:#231F20;stroke-miterlimit:10;" points="123.4926,233.7534 116.2697,224.3341 
					140.0763,211.3494 147.2991,220.7687 				"/>
				<polygon style="fill:#231F20;stroke:#231F20;stroke-miterlimit:10;" points="137.557,225.7308 130.7351,217.1542 
					136.1311,207.8833 148.3489,207.1889 155.1707,215.7655 149.7748,225.0364 				"/>
			</g>
			
				<ellipse transform="matrix(0.9276 -0.3736 0.3736 0.9276 -76.3454 62.0692)" style="fill:#231F20;stroke:#231F20;stroke-miterlimit:10;" cx="121.9572" cy="227.9951" rx="11.6621" ry="5.8975"/>
		</g>
		<line style="fill:#CF2026;stroke:#ED2024;stroke-miterlimit:10;" x1="153.5247" y1="213.696" x2="151.3412" y2="218.4876"/>
		<line style="fill:none;stroke:#ED2024;stroke-miterlimit:10;" x1="151.3412" y1="218.4876" x2="152.4329" y2="221.6377"/>
	</g>
	<line style="fill:none;stroke:#ED2024;stroke-miterlimit:10;" x1="149.4749" y1="208.6046" x2="142.9529" y2="211.3494"/>
	<line style="fill:none;stroke:#ED2024;stroke-miterlimit:10;" x1="134.2472" y1="211.1199" x2="142.9529" y2="211.3494"/>
</g>
<g>
	
		<ellipse transform="matrix(0.0814 -0.9967 0.9967 0.0814 -161.6376 338.324)" style="fill:#231F20;stroke:#231F20;stroke-miterlimit:10;" cx="102.7305" cy="256.8545" rx="3.0626" ry="15.6076"/>
	
		<rect x="109.1654" y="248.1015" transform="matrix(-0.0814 0.9967 -0.9967 -0.0814 378.1432 166.7585)" style="fill:#231F20;stroke:#231F20;stroke-miterlimit:10;" width="6.1253" height="19.0583"/>
</g>
<circle style="fill:#EF3B39;stroke:#EF3B39;stroke-miterlimit:10;" cx="120.7727" cy="258.1704" r="3.6598"/>
<rect x="82.6672" y="254.3289" transform="matrix(0.9842 0.1769 -0.1769 0.9842 46.4765 -10.9928)" style="fill:#231F20;stroke:#231F20;stroke-miterlimit:10;" width="4.4198" height="1.5532"/>
<g>
	
		<rect x="78.2552" y="252.1008" transform="matrix(0.8643 0.503 -0.503 0.8643 139.6527 -5.3514)" style="fill:#231F20;stroke:#231F20;stroke-miterlimit:10;" width="2.9751" height="8.0151"/>
	
		<rect x="76.2445" y="255.1644" transform="matrix(0.8643 0.503 -0.503 0.8643 140.9157 -3.5241)" style="fill:#231F20;stroke:#231F20;stroke-miterlimit:10;" width="1.4876" height="8.3961"/>
</g>
<g>
	<g>
		
			<ellipse transform="matrix(0.8667 -0.4989 0.4989 0.8667 -102.1019 95.7709)" style="fill:#231F20;stroke:#231F20;stroke-miterlimit:10;" cx="128.1204" cy="238.9009" rx="4.291" ry="16.5972"/>
		<line style="fill:none;stroke:#231F20;stroke-miterlimit:10;" x1="131.8393" y1="236.7602" x2="126.2758" y2="227.119"/>
	</g>
	<circle style="fill:#231F20;stroke:#231F20;stroke-miterlimit:10;" cx="120.9713" cy="229.4201" r="5.7471"/>
	<line style="fill:none;stroke:#231F20;stroke-miterlimit:10;" x1="125.2406" y1="242.4569" x2="115.8037" y2="231.9226"/>
	
		<ellipse transform="matrix(0.708 -0.7062 0.7062 0.708 -131.6952 155.8659)" style="fill:#231F20;stroke:#231F20;stroke-miterlimit:10;" cx="122.6416" cy="237.1925" rx="1.405" ry="3.8215"/>
</g>
<circle style="fill:#EF3B39;stroke:#EF3B39;stroke-miterlimit:10;" cx="136.0844" cy="253.1909" r="3.6598"/>
<g>
	<g>
		
			<ellipse transform="matrix(0.9842 -0.1773 0.1773 0.9842 -46.0569 29.0793)" style="fill:#231F20;stroke:#231F20;stroke-miterlimit:10;" cx="139.6719" cy="272.2308" rx="3.0626" ry="15.6076"/>
		
			<rect x="134.9197" y="253.3234" transform="matrix(0.9842 -0.1773 0.1773 0.9842 -44.4207 28.631)" style="fill:#231F20;stroke:#231F20;stroke-miterlimit:10;" width="6.1253" height="19.0583"/>
	</g>
	<circle style="fill:#231F20;stroke:#231F20;stroke-miterlimit:10;" cx="136.2442" cy="253.2056" r="3.0716"/>
</g>
<rect x="139.5005" y="287.8966" transform="matrix(0.0159 -0.9999 0.9999 0.0159 -149.1765 425.7821)" style="fill:#231F20;stroke:#231F20;stroke-miterlimit:10;" width="4.4198" height="1.5532"/>
<g>
	
		<rect x="142.6535" y="288.6272" transform="matrix(0.1359 -0.9907 0.9907 0.1359 -165.3661 395.6738)" style="fill:#231F20;stroke:#231F20;stroke-miterlimit:10;" width="2.9751" height="8.0151"/>
	
		<rect x="147.4553" y="289.744" transform="matrix(0.1359 -0.9907 0.9907 0.1359 -163.1547 400.8239)" style="fill:#231F20;stroke:#231F20;stroke-miterlimit:10;" width="1.4876" height="8.3961"/>
</g>
<g>
	
		<ellipse transform="matrix(0.9626 -0.271 0.271 0.9626 -50.3774 46.362)" style="fill:#231F20;stroke:#231F20;stroke-miterlimit:10;" cx="142.699" cy="205.6094" rx="4.643" ry="4.0044"/>
	
		<ellipse transform="matrix(0.3399 -0.9405 0.9405 0.3399 -104.2391 251.7521)" style="fill:#231F20;stroke:#231F20;stroke-miterlimit:10;" cx="127.223" cy="200.1337" rx="3.0259" ry="10.7914"/>
	<polygon style="fill:#231F20;stroke:#231F20;stroke-miterlimit:10;" points="125.7422,202.8127 138.7649,207.7051 
		141.7267,202.347 128.7039,197.4547 	"/>
</g>
<g>
	<ellipse style="fill:#231F20;stroke:#231F20;stroke-miterlimit:10;" cx="118.8267" cy="197.4802" rx="3.1483" ry="2.5954"/>
	<g>
		<ellipse style="fill:#231F20;stroke:#231F20;stroke-miterlimit:10;" cx="94.1879" cy="197.4802" rx="6.2649" ry="2.4758"/>
		<line style="fill:none;stroke:#231F20;stroke-miterlimit:10;" x1="85.4021" y1="197.4802" x2="93.1024" y2="197.4802"/>
		<rect x="94.4023" y="195.0025" style="fill:#231F20;stroke:#231F20;stroke-miterlimit:10;" width="24.4599" height="4.9554"/>
	</g>
</g>
<g>
	<rect x="79.3912" y="195.1203" style="fill:#231F20;stroke:#231F20;stroke-miterlimit:10;" width="6.0109" height="4.9554"/>
	<rect x="71.7926" y="198.1906" style="fill:#825C43;" width="10.1504" height="2.5013"/>
</g>
<g>
	<rect x="88.1057" y="208.6333" style="fill:#231F20;stroke:#231F20;stroke-miterlimit:10;" width="6.0109" height="4.9554"/>
	<rect x="80.5071" y="211.7037" style="fill:#825C43;" width="10.1504" height="2.5013"/>
</g>
</svg>
