<?xml version="1.0" encoding="utf-8"?>
<!-- Generator: Adobe Illustrator 26.5.1, SVG Export Plug-In . SVG Version: 6.00 Build 0)  -->
<svg version="1.1" id="running2" xmlns="http://www.w3.org/2000/svg" xmlns:xlink="http://www.w3.org/1999/xlink" x="0px" y="0px"
	 viewBox="0 0 237.6 378" style="enable-background:new 0 0 237.6 378;" xml:space="preserve">
<g>
	
		<ellipse transform="matrix(0.9451 -0.3269 0.3269 0.9451 -56.1788 48.0759)" style="fill:#231F20;stroke:#231F20;stroke-width:1;stroke-miterlimit:10.001;" cx="114.9426" cy="191.177" rx="8.0097" ry="9.287"/>
	
		<ellipse transform="matrix(0.2842 -0.9588 0.9588 0.2842 -64.2037 233.2384)" style="fill:#231F20;stroke:#231F20;stroke-width:1;stroke-miterlimit:10.0015;" cx="124.1" cy="159.617" rx="21.5859" ry="6.0526"/>
	<polygon style="fill:#231F20;stroke:#231F20;stroke-miterlimit:10;" points="118.5402,156.9534 110.2972,183.527 121.3416,188.813 
		129.5848,162.2392 	"/>
</g>
<g>
	
		<ellipse transform="matrix(0.9983 -0.0585 0.0585 0.9983 -8.0236 7.748)" style="fill:#231F20;stroke:#231F20;stroke-width:1;stroke-miterlimit:10.0001;" cx="128.3202" cy="140.9144" rx="5.1909" ry="6.2967"/>
	<g>
		
			<ellipse transform="matrix(0.9983 -0.0585 0.0585 0.9983 -5.1507 7.4951)" style="fill:#231F20;stroke:#231F20;stroke-width:1;stroke-miterlimit:10.0001;" cx="125.4381" cy="91.72" rx="4.9517" ry="12.5299"/>
		<line style="fill:none;stroke:#231F20;stroke-miterlimit:10;" x1="124.4192" y1="74.1618" x2="125.3208" y2="89.536"/>
		
			<rect x="121.9387" y="92.1062" transform="matrix(0.9983 -0.0585 0.0585 0.9983 -6.6017 7.6228)" style="fill:#231F20;stroke:#231F20;stroke-width:1;stroke-miterlimit:10.0001;" width="9.9109" height="48.9204"/>
	</g>
</g>
<g>
	<g>
		<g>
			<g>
				<polygon style="fill:#231F20;stroke:#231F20;stroke-miterlimit:10;" points="117.0722,256.3134 93.3442,255.5642 
					103.3962,202.2688 127.124,203.0182 				"/>
				<polygon style="fill:#231F20;stroke:#231F20;stroke-miterlimit:10;" points="122.4664,224.3824 100.5508,224.0798 
					93.0346,203.9858 107.4334,184.1944 129.349,184.4972 136.8654,204.5912 				"/>
			</g>
			
				<ellipse transform="matrix(0.2983 -0.9545 0.9545 0.2983 -165.4086 277.822)" style="fill:#231F20;stroke:#231F20;stroke-width:1;stroke-miterlimit:10.0006;" cx="106.2447" cy="251.4067" rx="23.3254" ry="11.7959"/>
		</g>
		<line style="fill:none;stroke:#ED2024;stroke-miterlimit:10;" x1="124.061" y1="184.4242" x2="128.7124" y2="193.8724"/>
		<line style="fill:none;stroke:#ED2024;stroke-miterlimit:10;" x1="128.7124" y1="193.8724" x2="134.971" y2="196.1722"/>
	</g>
	<line style="fill:none;stroke:#ED2024;stroke-miterlimit:10;" x1="111.051" y1="184.2446" x2="107.0394" y2="197.8162"/>
	<line style="fill:none;stroke:#ED2024;stroke-miterlimit:10;" x1="95.6584" y1="211.001" x2="107.0394" y2="197.8162"/>
</g>
<ellipse style="fill:#231F20;stroke:#EF3B39;stroke-miterlimit:9.9996;" cx="162.7504" cy="249.836" rx="7.3194" ry="7.3194"/>
<g>
	<g>
		<g>
			
				<ellipse transform="matrix(0.2165 -0.9763 0.9763 0.2165 -160.6242 339.4883)" style="fill:#231F20;stroke:#231F20;stroke-width:1;stroke-miterlimit:10;" cx="131.1973" cy="269.8169" rx="8.5821" ry="33.1946"/>
			<line style="fill:none;stroke:#231F20;stroke-miterlimit:10;" x1="133.0644" y1="261.472" x2="111.325" y2="256.6744"/>
		</g>
		<circle style="fill:#231F20;stroke:#231F20;stroke-miterlimit:10;" cx="107.5634" cy="267.6096" r="11.4942"/>
		<line style="fill:none;stroke:#231F20;stroke-miterlimit:10;" x1="132.5688" y1="278.9002" x2="104.284" y2="278.6146"/>
		
			<ellipse transform="matrix(0.9991 -0.0435 0.0435 0.9991 -11.8758 5.535)" style="fill:#231F20;stroke:#231F20;stroke-width:1;stroke-miterlimit:10;" cx="121.2499" cy="275.6587" rx="7.643" ry="2.8099"/>
	</g>
	<g>
		
			<ellipse transform="matrix(0.5961 -0.8029 0.8029 0.5961 -192.1105 235.1811)" style="fill:#231F20;stroke:#231F20;stroke-width:1;stroke-miterlimit:10.0006;" cx="137.704" cy="308.5396" rx="30.7505" ry="5.439"/>
		<polygon style="fill:#231F20;stroke:#231F20;stroke-miterlimit:10.0004;" points="142.0474,311.8736 133.428,305.2354 
			155.8264,275.0996 164.446,281.7376 		"/>
	</g>
	
		<rect x="111.343" y="334.8177" transform="matrix(0.6769 -0.736 0.736 0.6769 -210.1841 193.8747)" style="fill:#231F20;stroke:#231F20;stroke-width:0.9999;stroke-miterlimit:9.9989;" width="8.8387" height="3.1062"/>
	<g>
		
			<rect x="109.0131" y="338.0979" transform="matrix(0.8879 -0.46 0.46 0.8879 -146.6624 90.3094)" style="fill:#231F20;stroke:#231F20;stroke-width:1;stroke-miterlimit:9.9998;" width="5.9499" height="16.0299"/>
		
			<rect x="113.0419" y="345.856" transform="matrix(0.8879 -0.46 0.46 0.8879 -150.1216 92.3908)" style="fill:#231F20;stroke:#231F20;stroke-width:1;stroke-miterlimit:9.9998;" width="2.9752" height="16.7919"/>
	</g>
</g>
<g>
	
		<ellipse transform="matrix(0.9452 -0.3264 0.3264 0.9452 -57.6425 42.9541)" style="fill:#231F20;stroke:#231F20;stroke-width:1;stroke-miterlimit:10.0003;" cx="99.1704" cy="193.2364" rx="8.0092" ry="9.2863"/>
	
		<ellipse transform="matrix(0.2847 -0.9586 0.9586 0.2847 -77.5169 219.5594)" style="fill:#231F20;stroke:#231F20;stroke-width:1;stroke-miterlimit:10.001;" cx="108.3647" cy="161.7225" rx="21.5849" ry="6.0523"/>
	<polygon style="fill:#231F20;stroke:#231F20;stroke-miterlimit:10;" points="102.8194,159.023 94.564,185.5926 105.6062,190.8838 
		113.8614,164.314 	"/>
</g>
<g>
	
		<ellipse transform="matrix(0.9983 -0.0581 0.0581 0.9983 -8.2103 6.7902)" style="fill:#231F20;stroke:#231F20;stroke-width:1;stroke-miterlimit:9.9999;" cx="112.6663" cy="144.5875" rx="5.1907" ry="6.2965"/>
	<g>
		
			<ellipse transform="matrix(0.9983 -0.0581 0.0581 0.9983 -5.357 6.5408)" style="fill:#231F20;stroke:#231F20;stroke-width:1;stroke-miterlimit:9.9999;" cx="109.8032" cy="95.3938" rx="4.9515" ry="12.5297"/>
		<line style="fill:none;stroke:#231F20;stroke-miterlimit:10;" x1="108.7802" y1="77.8594" x2="109.6748" y2="93.2342"/>
		
			<rect x="106.294" y="95.7806" transform="matrix(0.9983 -0.0581 0.0581 0.9983 -6.7981 6.6668)" style="fill:#231F20;stroke:#231F20;stroke-width:1;stroke-miterlimit:9.9999;" width="9.9107" height="48.9193"/>
	</g>
</g>
<g>
	
		<rect x="104.0928" y="65.8048" transform="matrix(0.9983 -0.0581 0.0581 0.9983 -3.9883 6.4571)" style="fill:#231F20;stroke:#231F20;stroke-width:1;stroke-miterlimit:9.9999;" width="9.9107" height="12.0217"/>
	
		<rect x="102.2242" y="50.8406" transform="matrix(0.9983 -0.0581 0.0581 0.9983 -3.3667 6.1876)" style="fill:#825C43;" width="5.0025" height="20.3006"/>
</g>
<g>
	
		<rect x="119.7136" y="62.0513" transform="matrix(0.9983 -0.0585 0.0585 0.9983 -3.7681 7.4096)" style="fill:#231F20;stroke:#231F20;stroke-width:1;stroke-miterlimit:10.0001;" width="9.9109" height="12.0219"/>
	
		<rect x="117.8403" y="47.0887" transform="matrix(0.9983 -0.0585 0.0585 0.9983 -3.1424 7.1379)" style="fill:#825C43;" width="5.0027" height="20.3011"/>
</g>
<g>
	<g>
		<g>
			
				<ellipse transform="matrix(0.937 -0.3493 0.3493 0.937 -81.6782 62.7843)" style="fill:#231F20;stroke:#231F20;stroke-width:1;stroke-miterlimit:9.9998;" cx="133.2411" cy="257.859" rx="33.1941" ry="8.5819"/>
			<line style="fill:none;stroke:#231F20;stroke-miterlimit:10;" x1="130.2568" y1="249.836" x2="109.4046" y2="257.6338"/>
		</g>
		<circle style="fill:#231F20;stroke:#231F20;stroke-miterlimit:10;" cx="112.1956" cy="268.856" r="11.4942"/>
		<line style="fill:none;stroke:#231F20;stroke-miterlimit:10;" x1="139.32" y1="264.7304" x2="115.4294" y2="279.8746"/>
		
			<ellipse transform="matrix(0.8147 -0.5799 0.5799 0.8147 -131.764 123.9422)" style="fill:#231F20;stroke:#231F20;stroke-width:1;stroke-miterlimit:9.9998;" cx="128.0472" cy="268.1389" rx="7.6429" ry="2.8098"/>
	</g>
	<g>
		
			<ellipse transform="matrix(0.0635 -0.998 0.998 0.0635 -136.6064 428.0079)" style="fill:#231F20;stroke:#231F20;stroke-width:1;stroke-miterlimit:10.0007;" cx="159.75" cy="286.7912" rx="30.751" ry="5.4389"/>
		<polygon style="fill:#231F20;stroke:#231F20;stroke-miterlimit:10.0004;" points="165.2078,287.2446 154.3646,286.3626 
			156.7696,248.8914 167.613,249.7734 		"/>
	</g>
	
		<rect x="152.0654" y="320.5916" transform="matrix(0.1678 -0.9858 0.9858 0.1678 -187.3507 422.3536)" style="fill:#231F20;stroke:#231F20;stroke-width:1;stroke-miterlimit:9.9989;" width="8.8388" height="3.1061"/>
	<g>
		
			<rect x="155.6754" y="324.3552" transform="matrix(0.495 -0.8689 0.8689 0.495 -208.6762 305.6989)" style="fill:#231F20;stroke:#231F20;stroke-width:1;stroke-miterlimit:10.0006;" width="5.9504" height="16.0311"/>
		
			<rect x="163.7228" y="329.423" transform="matrix(0.495 -0.8689 0.8689 0.495 -210.0978 314.1503)" style="fill:#231F20;stroke:#231F20;stroke-width:1;stroke-miterlimit:10.0006;" width="2.9752" height="16.7931"/>
	</g>
</g>
<g>
	<circle style="fill:#231F20;stroke:#231F20;stroke-miterlimit:10;" cx="123.6176" cy="164.637" r="23.7134"/>
	<ellipse style="fill:#825C43;stroke:#ED2024;stroke-miterlimit:10;" cx="137.6554" cy="164.637" rx="8.297" ry="4.5634"/>
	
		<ellipse transform="matrix(0.1769 -0.9842 0.9842 0.1769 -70.6985 275.3845)" style="fill:#825C43;stroke:#ED2024;stroke-width:1;stroke-miterlimit:9.9988;" cx="129.2983" cy="179.9616" rx="4.5627" ry="4.1479"/>
	<ellipse style="fill:#825C43;stroke:#ED2024;stroke-miterlimit:10;" cx="118.6618" cy="166.1244" rx="8.297" ry="4.5634"/>
</g>
<circle style="fill:#231F20;stroke:#231F20;stroke-miterlimit:10;" cx="140.9434" cy="164.637" r="1.4876"/>
<circle style="fill:#231F20;stroke:#231F20;stroke-miterlimit:10;" cx="121.637" cy="166.1244" r="1.4876"/>
</svg>
