<?xml version="1.0" encoding="utf-8"?>
<!-- Generator: Adobe Illustrator 26.5.1, SVG Export Plug-In . SVG Version: 6.00 Build 0)  -->
<svg version="1.1" id="running2" xmlns="http://www.w3.org/2000/svg" xmlns:xlink="http://www.w3.org/1999/xlink" x="0px" y="0px"
	 viewBox="0 0 237.6 378" style="enable-background:new 0 0 237.6 378;" xml:space="preserve">
<g>
	<circle style="fill:#231F20;stroke:#231F20;stroke-miterlimit:10;" cx="160.7471" cy="203.2884" r="11.8567"/>
	<ellipse style="fill:#825C43;stroke:#ED2024;stroke-miterlimit:10;" cx="167.766" cy="203.2884" rx="4.1485" ry="2.2817"/>
	
		<ellipse transform="matrix(0.1769 -0.9842 0.9842 0.1769 -72.95 334.651)" style="fill:#825C43;stroke:#ED2024;stroke-width:1;stroke-miterlimit:9.9997;" cx="163.6069" cy="210.941" rx="2.2816" ry="2.0742"/>
	<ellipse style="fill:#825C43;stroke:#ED2024;stroke-miterlimit:10;" cx="158.2692" cy="204.0321" rx="4.1485" ry="2.2817"/>
</g>
<circle style="fill:#231F20;stroke:#231F20;stroke-miterlimit:10;" cx="169.41" cy="203.2884" r="0.7438"/>
<circle style="fill:#231F20;stroke:#231F20;stroke-miterlimit:10;" cx="159.7568" cy="204.0321" r="0.7438"/>
<g>
	<g>
		
			<ellipse transform="matrix(0.9402 -0.3406 0.3406 0.9402 -75.4401 56.0484)" style="fill:#231F20;stroke:#231F20;stroke-width:1;stroke-miterlimit:10.0002;" cx="121.939" cy="242.9223" rx="4.2911" ry="16.5976"/>
		<line style="fill:none;stroke:#231F20;stroke-miterlimit:10;" x1="125.9651" y1="241.4609" x2="122.1632" y2="230.999"/>
	</g>
	<circle style="fill:#231F20;stroke:#231F20;stroke-miterlimit:10;" cx="116.5394" cy="232.3423" r="5.7471"/>
	<line style="fill:none;stroke:#231F20;stroke-miterlimit:10;" x1="118.4761" y1="245.923" x2="111.0153" y2="233.9079"/>
	
		<ellipse transform="matrix(0.82 -0.5723 0.5723 0.82 -116.489 110.1044)" style="fill:#231F20;stroke:#231F20;stroke-width:1;stroke-miterlimit:10.0001;" cx="116.8362" cy="240.2852" rx="1.405" ry="3.8215"/>
</g>
<g>
	
		<ellipse transform="matrix(0.9626 -0.271 0.271 0.9626 -53.8057 49.4812)" style="fill:#231F20;stroke:#231F20;stroke-width:1;stroke-miterlimit:10.0002;" cx="152.2719" cy="219.5749" rx="4.6431" ry="4.0045"/>
	
		<ellipse transform="matrix(0.3399 -0.9405 0.9405 0.3399 -111.0413 269.975)" style="fill:#231F20;stroke:#231F20;stroke-width:1;stroke-miterlimit:10.0004;" cx="136.7969" cy="214.0882" rx="3.026" ry="10.7918"/>
	<polygon style="fill:#231F20;stroke:#231F20;stroke-miterlimit:10;" points="135.3089,216.7772 148.3316,221.6696 
		151.2934,216.3116 138.2706,211.4192 	"/>
</g>
<g>
	<ellipse style="fill:#231F20;stroke:#231F20;stroke-miterlimit:10;" cx="127.5808" cy="211.4192" rx="3.1483" ry="2.5954"/>
	<g>
		<ellipse style="fill:#231F20;stroke:#231F20;stroke-miterlimit:10;" cx="102.942" cy="211.4192" rx="6.2649" ry="2.4758"/>
		<line style="fill:none;stroke:#231F20;stroke-miterlimit:10;" x1="94.1562" y1="211.4192" x2="101.8565" y2="211.4192"/>
		<rect x="103.1564" y="208.9415" style="fill:#231F20;stroke:#231F20;stroke-miterlimit:10;" width="24.4599" height="4.9554"/>
	</g>
</g>
<g>
	<g>
		<g>
			<g>
				<polygon style="fill:#231F20;stroke:#231F20;stroke-miterlimit:10;" points="123.4926,233.7534 116.2697,224.3341 
					140.0763,211.3494 147.2991,220.7687 				"/>
				<polygon style="fill:#231F20;stroke:#231F20;stroke-miterlimit:10;" points="137.557,225.7308 130.7351,217.1542 
					136.1311,207.8833 148.3489,207.1889 155.1707,215.7655 149.7748,225.0364 				"/>
			</g>
			
				<ellipse transform="matrix(0.9276 -0.3736 0.3736 0.9276 -76.3468 62.073)" style="fill:#231F20;stroke:#231F20;stroke-width:1;stroke-miterlimit:10.0001;" cx="121.9611" cy="227.9942" rx="11.6622" ry="5.8976"/>
		</g>
		<line style="fill:none;stroke:#ED2024;stroke-miterlimit:10;" x1="153.5247" y1="213.696" x2="151.3412" y2="218.4876"/>
		<line style="fill:none;stroke:#ED2024;stroke-miterlimit:10;" x1="151.3412" y1="218.4876" x2="152.4329" y2="221.6377"/>
	</g>
	<line style="fill:none;stroke:#ED2024;stroke-miterlimit:10;" x1="149.4749" y1="208.6046" x2="142.9529" y2="211.3494"/>
	<line style="fill:none;stroke:#ED2024;stroke-miterlimit:10;" x1="134.2472" y1="211.1199" x2="142.9529" y2="211.3494"/>
</g>
<g>
	
		<ellipse transform="matrix(0.0814 -0.9967 0.9967 0.0814 -156.332 342.3615)" style="fill:#231F20;stroke:#231F20;stroke-width:1;stroke-miterlimit:10.0002;" cx="107.5649" cy="255.9908" rx="3.0627" ry="15.6079"/>
	
		<rect x="113.998" y="247.266" transform="matrix(0.0814 -0.9967 0.9967 0.0814 -148.411 352.5649)" style="fill:#231F20;stroke:#231F20;stroke-width:1;stroke-miterlimit:10.0002;" width="6.1254" height="19.0586"/>
</g>
<rect x="88.9412" y="252.0373" transform="matrix(0.1769 -0.9842 0.9842 0.1769 -176.3909 297.5722)" style="fill:#231F20;stroke:#231F20;stroke-width:1;stroke-miterlimit:9.9997;" width="1.5532" height="4.4197"/>
<g>
	
		<rect x="80.5776" y="253.7764" transform="matrix(0.503 -0.8643 0.8643 0.503 -178.5827 199.9738)" style="fill:#231F20;stroke:#231F20;stroke-width:1;stroke-miterlimit:10.0001;" width="8.0152" height="2.9751"/>
	
		<rect x="77.6327" y="257.7745" transform="matrix(0.503 -0.8643 0.8643 0.503 -182.7644 199.2106)" style="fill:#231F20;stroke:#231F20;stroke-width:1;stroke-miterlimit:10.0001;" width="8.3962" height="1.4876"/>
</g>
<g>
	<g>
		
			<ellipse transform="matrix(0.9309 -0.3653 0.3653 0.9309 -79.5337 63.4064)" style="fill:#231F20;stroke:#231F20;stroke-width:1;stroke-miterlimit:10.0003;" cx="127.8232" cy="241.9194" rx="4.2912" ry="16.5978"/>
		<line style="fill:none;stroke:#231F20;stroke-miterlimit:10;" x1="131.8113" y1="240.3448" x2="127.7343" y2="229.9871"/>
	</g>
	<circle style="fill:#231F20;stroke:#231F20;stroke-miterlimit:10;" cx="122.1479" cy="231.4787" r="5.7471"/>
	<line style="fill:none;stroke:#231F20;stroke-miterlimit:10;" x1="124.4429" y1="245.0034" x2="116.6672" y2="233.1897"/>
	
		<ellipse transform="matrix(0.8046 -0.5938 0.5938 0.8046 -118.1926 119.5991)" style="fill:#231F20;stroke:#231F20;stroke-width:1;stroke-miterlimit:9.9999;" cx="122.6502" cy="239.4087" rx="1.405" ry="3.8215"/>
</g>
<circle style="fill:#EF3B39;stroke:#EF3B39;stroke-miterlimit:10;" cx="133.7306" cy="256.4787" r="3.6598"/>
<g>
	<g>
		
			<ellipse transform="matrix(0.9998 -0.0222 0.0222 0.9998 -6.0991 3.054)" style="fill:#231F20;stroke:#231F20;stroke-width:1;stroke-miterlimit:10.0004;" cx="134.3168" cy="275.8593" rx="3.0627" ry="15.6083"/>
		
			<rect x="131.0423" y="256.8023" transform="matrix(0.9998 -0.0222 0.0222 0.9998 -5.8874 3.047)" style="fill:#231F20;stroke:#231F20;stroke-width:1;stroke-miterlimit:10.0004;" width="6.1256" height="19.0591"/>
	</g>
	<circle style="fill:#231F20;stroke:#231F20;stroke-miterlimit:10;" cx="133.8861" cy="256.5181" r="3.0716"/>
</g>
<circle style="fill:#EF3B39;stroke:#EF3B39;stroke-miterlimit:10;" cx="126.5948" cy="257.4508" r="3.6598"/>
<rect x="132.3067" y="292.7025" transform="matrix(0.0159 -0.9999 0.9999 0.0159 -161.0641 423.3125)" style="fill:#231F20;stroke:#231F20;stroke-width:1;stroke-miterlimit:10.0003;" width="4.4199" height="1.5532"/>
<g>
	
		<rect x="135.444" y="293.4382" transform="matrix(0.1359 -0.9907 0.9907 0.1359 -176.3639 392.683)" style="fill:#231F20;stroke:#231F20;stroke-width:1;stroke-miterlimit:9.9998;" width="2.975" height="8.0149"/>
	
		<rect x="140.2458" y="294.5551" transform="matrix(0.1359 -0.9907 0.9907 0.1359 -174.1527 397.8331)" style="fill:#231F20;stroke:#231F20;stroke-width:1;stroke-miterlimit:9.9998;" width="1.4876" height="8.3959"/>
</g>
<g>
	
		<ellipse transform="matrix(0.9626 -0.271 0.271 0.9626 -50.3794 46.366)" style="fill:#231F20;stroke:#231F20;stroke-width:1;stroke-miterlimit:10.0002;" cx="142.7048" cy="205.6102" rx="4.6431" ry="4.0045"/>
	
		<ellipse transform="matrix(0.3399 -0.9405 0.9405 0.3399 -104.2242 251.7598)" style="fill:#231F20;stroke:#231F20;stroke-width:1;stroke-miterlimit:10.0004;" cx="127.2297" cy="200.1243" rx="3.026" ry="10.7918"/>
	<polygon style="fill:#231F20;stroke:#231F20;stroke-miterlimit:10;" points="125.7422,202.8127 138.7649,207.7051 
		141.7267,202.347 128.7039,197.4547 	"/>
</g>
<g>
	<ellipse style="fill:#231F20;stroke:#231F20;stroke-miterlimit:10;" cx="118.8267" cy="197.4802" rx="3.1483" ry="2.5954"/>
	<g>
		<ellipse style="fill:#231F20;stroke:#231F20;stroke-miterlimit:10;" cx="94.1879" cy="197.4802" rx="6.2649" ry="2.4758"/>
		<line style="fill:none;stroke:#231F20;stroke-miterlimit:10;" x1="85.4021" y1="197.4802" x2="93.1024" y2="197.4802"/>
		<rect x="94.4023" y="195.0025" style="fill:#231F20;stroke:#231F20;stroke-miterlimit:10;" width="24.4599" height="4.9554"/>
	</g>
</g>
<g>
	<rect x="79.3912" y="195.1203" style="fill:#231F20;stroke:#231F20;stroke-miterlimit:10;" width="6.0109" height="4.9554"/>
	<rect x="71.7926" y="198.1906" style="fill:#825C43;" width="10.1504" height="2.5013"/>
</g>
<g>
	<rect x="88.1057" y="208.6333" style="fill:#231F20;stroke:#231F20;stroke-miterlimit:10;" width="6.0109" height="4.9554"/>
	<rect x="80.5071" y="211.7037" style="fill:#825C43;" width="10.1504" height="2.5013"/>
</g>
</svg>
