<?xml version="1.0" encoding="utf-8"?>
<!-- Generator: Adobe Illustrator 26.5.1, SVG Export Plug-In . SVG Version: 6.00 Build 0)  -->
<svg version="1.1" id="running2" xmlns="http://www.w3.org/2000/svg" xmlns:xlink="http://www.w3.org/1999/xlink" x="0px" y="0px"
	 viewBox="0 0 237.6 378" style="enable-background:new 0 0 237.6 378;" xml:space="preserve">
<g>
	<circle style="fill:#231F20;stroke:#231F20;stroke-miterlimit:10;" cx="160.7471" cy="203.2884" r="11.8567"/>
	<ellipse style="fill:#825C43;stroke:#ED2024;stroke-miterlimit:10;" cx="167.766" cy="203.2884" rx="4.1485" ry="2.2817"/>
	
		<ellipse transform="matrix(0.1769 -0.9842 0.9842 0.1769 -72.949 334.6572)" style="fill:#825C43;stroke:#ED2024;stroke-miterlimit:10;" cx="163.6175" cy="210.9449" rx="2.2817" ry="2.0743"/>
	<ellipse style="fill:#825C43;stroke:#ED2024;stroke-miterlimit:10;" cx="158.2692" cy="204.0321" rx="4.1485" ry="2.2817"/>
</g>
<circle style="fill:#231F20;stroke:#231F20;stroke-miterlimit:10;" cx="169.41" cy="203.2884" r="0.7438"/>
<circle style="fill:#231F20;stroke:#231F20;stroke-miterlimit:10;" cx="159.7568" cy="204.0321" r="0.7438"/>
<g>
	<g>
		
			<ellipse transform="matrix(0.866 -0.5 0.5 0.866 -104.5268 86.0578)" style="fill:#231F20;stroke:#231F20;stroke-miterlimit:10;" cx="108.3227" cy="238.0786" rx="16.5972" ry="4.291"/>
		<line style="fill:none;stroke:#231F20;stroke-miterlimit:10;" x1="110.4682" y1="241.7947" x2="120.1022" y2="236.2188"/>
	</g>
	<circle style="fill:#231F20;stroke:#231F20;stroke-miterlimit:10;" cx="117.7943" cy="230.9173" r="5.7471"/>
	<line style="fill:none;stroke:#231F20;stroke-miterlimit:10;" x1="104.763" y1="235.2034" x2="115.2852" y2="225.7529"/>
	
		<ellipse transform="matrix(0.7071 -0.7071 0.7071 0.7071 -132.246 145.925)" style="fill:#231F20;stroke:#231F20;stroke-miterlimit:10;" cx="110.0241" cy="232.5976" rx="3.8215" ry="1.405"/>
</g>
<g>
	
		<ellipse transform="matrix(0.9626 -0.271 0.271 0.9626 -53.8036 49.477)" style="fill:#231F20;stroke:#231F20;stroke-miterlimit:10;" cx="152.2657" cy="219.574" rx="4.643" ry="4.0044"/>
	
		<ellipse transform="matrix(0.3399 -0.9405 0.9405 0.3399 -111.0573 269.9669)" style="fill:#231F20;stroke:#231F20;stroke-miterlimit:10;" cx="136.7897" cy="214.0982" rx="3.0259" ry="10.7914"/>
	<polygon style="fill:#231F20;stroke:#231F20;stroke-miterlimit:10;" points="135.3089,216.7772 148.3316,221.6696 
		151.2934,216.3116 138.2706,211.4192 	"/>
</g>
<g>
	<ellipse style="fill:#231F20;stroke:#231F20;stroke-miterlimit:10;" cx="127.5808" cy="211.4192" rx="3.1483" ry="2.5954"/>
	<g>
		<ellipse style="fill:#231F20;stroke:#231F20;stroke-miterlimit:10;" cx="102.942" cy="211.4192" rx="6.2649" ry="2.4758"/>
		<line style="fill:none;stroke:#231F20;stroke-miterlimit:10;" x1="94.1562" y1="211.4192" x2="101.8565" y2="211.4192"/>
		<rect x="103.1564" y="208.9415" style="fill:#231F20;stroke:#231F20;stroke-miterlimit:10;" width="24.4599" height="4.9554"/>
	</g>
</g>
<g>
	<g>
		<g>
			<g>
				<polygon style="fill:#231F20;stroke:#231F20;stroke-miterlimit:10;" points="123.4926,233.7534 116.2697,224.3341 
					140.0763,211.3494 147.2991,220.7687 				"/>
				<polygon style="fill:#231F20;stroke:#231F20;stroke-miterlimit:10;" points="137.557,225.7308 130.7351,217.1542 
					136.1311,207.8833 148.3489,207.1889 155.1707,215.7655 149.7748,225.0364 				"/>
			</g>
			
				<ellipse transform="matrix(0.9276 -0.3736 0.3736 0.9276 -76.3454 62.0692)" style="fill:#231F20;stroke:#231F20;stroke-miterlimit:10;" cx="121.9572" cy="227.9951" rx="11.6621" ry="5.8975"/>
		</g>
		<line style="fill:#CF2026;stroke:#ED2024;stroke-miterlimit:10;" x1="153.5247" y1="213.696" x2="151.3412" y2="218.4876"/>
		<line style="fill:none;stroke:#ED2024;stroke-miterlimit:10;" x1="151.3412" y1="218.4876" x2="152.4329" y2="221.6377"/>
	</g>
	<line style="fill:none;stroke:#ED2024;stroke-miterlimit:10;" x1="149.4749" y1="208.6046" x2="142.9529" y2="211.3494"/>
	<line style="fill:none;stroke:#ED2024;stroke-miterlimit:10;" x1="134.2472" y1="211.1199" x2="142.9529" y2="211.3494"/>
</g>
<g>
	
		<ellipse transform="matrix(0.959 -0.2834 0.2834 0.959 -67.8791 32.0562)" style="fill:#231F20;stroke:#231F20;stroke-miterlimit:10;" cx="76.8678" cy="250.6634" rx="15.6076" ry="3.0626"/>
	
		<rect x="82.9438" y="238.4339" transform="matrix(0.2834 0.959 -0.959 0.2834 299.4345 95.2174)" style="fill:#231F20;stroke:#231F20;stroke-miterlimit:10;" width="6.1253" height="19.0583"/>
</g>
<circle style="fill:#EF3B39;stroke:#EF3B39;stroke-miterlimit:10;" cx="95.262" cy="245.6192" r="3.6598"/>
<rect x="57.4802" y="255.086" style="fill:#231F20;stroke:#231F20;stroke-miterlimit:10;" width="4.4198" height="1.5532"/>
<g>
	
		<rect x="53.3294" y="255.0752" transform="matrix(0.7531 0.6579 -0.6579 0.7531 183.9896 27.9049)" style="fill:#231F20;stroke:#231F20;stroke-miterlimit:10;" width="2.9751" height="8.0151"/>
	
		<rect x="50.751" y="257.5569" transform="matrix(0.7531 0.6579 -0.6579 0.7531 184.9274 30.7503)" style="fill:#231F20;stroke:#231F20;stroke-miterlimit:10;" width="1.4876" height="8.3961"/>
</g>
<g>
	<g>
		
			<ellipse transform="matrix(0.5818 -0.8134 0.8134 0.5818 -135.7928 206.6172)" style="fill:#231F20;stroke:#231F20;stroke-miterlimit:10;" cx="133.0118" cy="235.3493" rx="4.291" ry="16.5972"/>
		<line style="fill:none;stroke:#231F20;stroke-miterlimit:10;" x1="135.5082" y1="231.8592" x2="126.4475" y2="225.3931"/>
	</g>
	<circle style="fill:#231F20;stroke:#231F20;stroke-miterlimit:10;" cx="122.5749" cy="229.6866" r="5.7471"/>
	<line style="fill:none;stroke:#231F20;stroke-miterlimit:10;" x1="131.8658" y1="239.7793" x2="118.9102" y2="234.1067"/>
	
		<ellipse transform="matrix(0.3514 -0.9362 0.9362 0.3514 -138.4344 272.3024)" style="fill:#231F20;stroke:#231F20;stroke-miterlimit:10;" cx="127.3178" cy="236.0666" rx="1.405" ry="3.8215"/>
</g>
<circle style="fill:#EF3B39;stroke:#EF3B39;stroke-miterlimit:10;" cx="146.2139" cy="244.7923" r="3.6598"/>
<g>
	<g>
		
			<ellipse transform="matrix(0.6478 -0.7618 0.7618 0.6478 -139.2972 214.0753)" style="fill:#231F20;stroke:#231F20;stroke-miterlimit:10;" cx="161.8845" cy="257.6945" rx="3.0626" ry="15.6076"/>
		
			<rect x="151.5626" y="241.9921" transform="matrix(0.6478 -0.7618 0.7618 0.6478 -137.151 206.3711)" style="fill:#231F20;stroke:#231F20;stroke-miterlimit:10;" width="6.1253" height="19.0583"/>
	</g>
	<circle style="fill:#231F20;stroke:#231F20;stroke-miterlimit:10;" cx="147.1579" cy="245.171" r="3.0716"/>
</g>
<rect x="171.6881" y="268.3278" transform="matrix(-0.6225 -0.7826 0.7826 -0.6225 71.5438 572.718)" style="fill:#231F20;stroke:#231F20;stroke-miterlimit:10;" width="4.4198" height="1.5532"/>
<g>
	
		<rect x="176.3692" y="266.451" transform="matrix(-0.3275 -0.9449 0.9449 -0.3275 -19.4472 527.075)" style="fill:#231F20;stroke:#231F20;stroke-miterlimit:10;" width="2.9751" height="8.0151"/>
	
		<rect x="181.3231" y="265.5885" transform="matrix(-0.3275 -0.9449 0.9449 -0.3275 -13.2235 530.1609)" style="fill:#231F20;stroke:#231F20;stroke-miterlimit:10;" width="1.4876" height="8.3961"/>
</g>
<g>
	
		<ellipse transform="matrix(0.9626 -0.271 0.271 0.9626 -50.3774 46.362)" style="fill:#231F20;stroke:#231F20;stroke-miterlimit:10;" cx="142.699" cy="205.6094" rx="4.643" ry="4.0044"/>
	
		<ellipse transform="matrix(0.3399 -0.9405 0.9405 0.3399 -104.2391 251.7521)" style="fill:#231F20;stroke:#231F20;stroke-miterlimit:10;" cx="127.223" cy="200.1337" rx="3.0259" ry="10.7914"/>
	<polygon style="fill:#231F20;stroke:#231F20;stroke-miterlimit:10;" points="125.7422,202.8127 138.7649,207.7051 
		141.7267,202.347 128.7039,197.4547 	"/>
</g>
<g>
	<ellipse style="fill:#231F20;stroke:#231F20;stroke-miterlimit:10;" cx="118.8267" cy="197.4802" rx="3.1483" ry="2.5954"/>
	<g>
		<ellipse style="fill:#231F20;stroke:#231F20;stroke-miterlimit:10;" cx="94.1879" cy="197.4802" rx="6.2649" ry="2.4758"/>
		<line style="fill:none;stroke:#231F20;stroke-miterlimit:10;" x1="85.4021" y1="197.4802" x2="93.1024" y2="197.4802"/>
		<rect x="94.4023" y="195.0025" style="fill:#231F20;stroke:#231F20;stroke-miterlimit:10;" width="24.4599" height="4.9554"/>
	</g>
</g>
<g>
	<rect x="79.3912" y="195.1203" style="fill:#231F20;stroke:#231F20;stroke-miterlimit:10;" width="6.0109" height="4.9554"/>
	<rect x="71.7926" y="198.1906" style="fill:#825C43;" width="10.1504" height="2.5013"/>
</g>
<g>
	<rect x="88.1057" y="208.6333" style="fill:#231F20;stroke:#231F20;stroke-miterlimit:10;" width="6.0109" height="4.9554"/>
	<rect x="80.5071" y="211.7037" style="fill:#825C43;" width="10.1504" height="2.5013"/>
</g>
</svg>
