<?xml version="1.0" encoding="utf-8"?>
<!-- Generator: Adobe Illustrator 26.5.1, SVG Export Plug-In . SVG Version: 6.00 Build 0)  -->
<svg version="1.1" id="running2" xmlns="http://www.w3.org/2000/svg" xmlns:xlink="http://www.w3.org/1999/xlink" x="0px" y="0px"
	 viewBox="0 0 237.6 378" style="enable-background:new 0 0 237.6 378;" xml:space="preserve">
<g>
	<circle style="fill:#231F20;stroke:#231F20;stroke-miterlimit:10;" cx="199.296" cy="169.9425" r="23.7134"/>
	<ellipse style="fill:#825C43;stroke:#ED2024;stroke-miterlimit:10;" cx="213.3338" cy="169.9425" rx="8.297" ry="4.5634"/>
	
		<ellipse transform="matrix(0.1769 -0.9842 0.9842 0.1769 -13.6147 354.2437)" style="fill:#825C43;stroke:#ED2024;stroke-width:1;stroke-miterlimit:9.9991;" cx="204.9887" cy="185.2618" rx="4.5629" ry="4.1481"/>
	<ellipse style="fill:#825C43;stroke:#ED2024;stroke-miterlimit:10;" cx="194.3402" cy="171.4299" rx="8.297" ry="4.5634"/>
</g>
<circle style="fill:#231F20;stroke:#231F20;stroke-miterlimit:10;" cx="216.6218" cy="169.9425" r="1.4876"/>
<circle style="fill:#231F20;stroke:#231F20;stroke-miterlimit:10;" cx="197.3154" cy="171.4299" r="1.4876"/>
<g>
	
		<ellipse transform="matrix(0.9626 -0.271 0.271 0.9626 -48.0604 56.9976)" style="fill:#231F20;stroke:#231F20;stroke-width:1;stroke-miterlimit:10.0006;" cx="182.362" cy="202.529" rx="9.2866" ry="8.0093"/>
	
		<ellipse transform="matrix(0.3399 -0.9405 0.9405 0.3399 -80.1693 268.8502)" style="fill:#231F20;stroke:#231F20;stroke-width:1;stroke-miterlimit:10.0012;" cx="151.4316" cy="191.5339" rx="6.0524" ry="21.5852"/>
	<polygon style="fill:#231F20;stroke:#231F20;stroke-miterlimit:10;" points="148.4196,196.9201 174.465,206.7049 
		180.3886,195.9889 154.343,186.2041 	"/>
</g>
<g>
	<ellipse style="fill:#231F20;stroke:#231F20;stroke-miterlimit:10;" cx="132.9634" cy="186.2041" rx="6.2966" ry="5.1908"/>
	<g>
		<ellipse style="fill:#231F20;stroke:#231F20;stroke-miterlimit:10;" cx="83.6858" cy="186.2041" rx="12.5298" ry="4.9516"/>
		<line style="fill:none;stroke:#231F20;stroke-miterlimit:10;" x1="66.1142" y1="186.2041" x2="81.5148" y2="186.2041"/>
		<rect x="84.1146" y="181.2487" style="fill:#231F20;stroke:#231F20;stroke-miterlimit:10;" width="48.9198" height="9.9108"/>
	</g>
</g>
<g>
	<g>
		<g>
			<g>
				<polygon style="fill:#231F20;stroke:#231F20;stroke-miterlimit:10;" points="124.787,230.8725 110.3412,212.0339 
					157.9544,186.0645 172.4,204.9031 				"/>
				<polygon style="fill:#231F20;stroke:#231F20;stroke-miterlimit:10;" points="152.9158,214.8273 139.272,197.6741 
					150.064,179.1323 174.4996,177.7435 188.1432,194.8967 177.3514,213.4385 				"/>
			</g>
			
				<ellipse transform="matrix(0.9276 -0.3736 0.3736 0.9276 -73.1378 61.362)" style="fill:#231F20;stroke:#231F20;stroke-width:1;stroke-miterlimit:10.0003;" cx="121.7314" cy="219.3604" rx="23.3248" ry="11.7955"/>
		</g>
		<line style="fill:none;stroke:#ED2024;stroke-miterlimit:10;" x1="184.8512" y1="190.7577" x2="180.4842" y2="200.3409"/>
		<line style="fill:none;stroke:#ED2024;stroke-miterlimit:10;" x1="180.4842" y1="200.3409" x2="182.6676" y2="206.6411"/>
	</g>
	<line style="fill:none;stroke:#ED2024;stroke-miterlimit:10;" x1="176.7516" y1="180.5749" x2="163.7076" y2="186.0645"/>
	<line style="fill:none;stroke:#ED2024;stroke-miterlimit:10;" x1="146.2962" y1="185.6055" x2="163.7076" y2="186.0645"/>
</g>
<ellipse style="fill:#231F20;stroke:#EF3B39;stroke-width:1;stroke-miterlimit:9.9996;" cx="172.3927" cy="243.2834" rx="7.3193" ry="7.3193"/>
<g>
	<g>
		<g>
			
				<ellipse transform="matrix(0.6834 -0.73 0.73 0.6834 -136.7323 174.2671)" style="fill:#231F20;stroke:#231F20;stroke-width:1;stroke-miterlimit:9.9998;" cx="132.5624" cy="244.7847" rx="8.5819" ry="33.1939"/>
			<line style="fill:none;stroke:#231F20;stroke-miterlimit:10;" x1="138.4272" y1="238.5559" x2="122.1596" y2="223.3577"/>
		</g>
		<circle style="fill:#231F20;stroke:#231F20;stroke-miterlimit:10;" cx="113.3542" cy="230.8539" r="11.4942"/>
		<line style="fill:none;stroke:#231F20;stroke-miterlimit:10;" x1="129.1268" y1="253.3033" x2="104.9284" y2="238.6559"/>
		
			<ellipse transform="matrix(0.4712 -0.882 0.882 0.4712 -151.8384 236.1835)" style="fill:#231F20;stroke:#231F20;stroke-width:1;stroke-miterlimit:9.9995;" cx="121.0579" cy="244.725" rx="2.8097" ry="7.6426"/>
	</g>
	<g>
		
			<ellipse transform="matrix(0.9219 -0.3875 0.3875 0.9219 -99.8033 67.8849)" style="fill:#231F20;stroke:#231F20;stroke-width:1;stroke-miterlimit:10.0007;" cx="118.4466" cy="281.4455" rx="30.7509" ry="5.4389"/>
		<polygon style="fill:#231F20;stroke:#231F20;stroke-miterlimit:10.0004;" points="120.4958,286.5087 116.4572,276.4067 
			151.079,261.8743 155.1178,271.9763 		"/>
	</g>
	
		<rect x="80.9948" y="292.6871" transform="matrix(0.9574 -0.2888 0.2888 0.9574 -81.3363 37.2049)" style="fill:#231F20;stroke:#231F20;stroke-width:1;stroke-miterlimit:9.9995;" width="8.8393" height="3.1064"/>
	<g>
		
			<rect x="69.1692" y="297.7106" transform="matrix(0.0562 -0.9984 0.9984 0.0562 -227.364 360.8491)" style="fill:#231F20;stroke:#231F20;stroke-width:1;stroke-miterlimit:10;" width="16.0303" height="5.9501"/>
		
			<rect x="66.831" y="307.4973" transform="matrix(0.0562 -0.9984 0.9984 0.0562 -237.4973 366.7279)" style="fill:#231F20;stroke:#231F20;stroke-width:1;stroke-miterlimit:10;" width="16.7923" height="2.9752"/>
	</g>
</g>
<g>
	
		<ellipse transform="matrix(0.9626 -0.271 0.271 0.9626 -41.2075 50.7669)" style="fill:#231F20;stroke:#231F20;stroke-width:1;stroke-miterlimit:10.0006;" cx="163.2267" cy="174.5987" rx="9.2866" ry="8.0093"/>
	
		<ellipse transform="matrix(0.3399 -0.9405 0.9405 0.3399 -66.5374 232.4175)" style="fill:#231F20;stroke:#231F20;stroke-width:1;stroke-miterlimit:10.0012;" cx="132.2947" cy="163.6069" rx="6.0524" ry="21.5852"/>
	<polygon style="fill:#231F20;stroke:#231F20;stroke-miterlimit:10;" points="129.2862,168.9911 155.3316,178.7759 
		161.2552,168.0597 135.2096,158.2751 	"/>
</g>
<g>
	<ellipse style="fill:#231F20;stroke:#231F20;stroke-miterlimit:10;" cx="115.4552" cy="158.3261" rx="6.2966" ry="5.1908"/>
	<g>
		<ellipse style="fill:#231F20;stroke:#231F20;stroke-miterlimit:10;" cx="66.1776" cy="158.3261" rx="12.5298" ry="4.9516"/>
		<line style="fill:none;stroke:#231F20;stroke-miterlimit:10;" x1="48.606" y1="158.3261" x2="64.0066" y2="158.3261"/>
		<rect x="66.6064" y="153.3707" style="fill:#231F20;stroke:#231F20;stroke-miterlimit:10;" width="48.9198" height="9.9108"/>
	</g>
</g>
<g>
	<rect x="36.5842" y="152.7545" style="fill:#231F20;stroke:#231F20;stroke-miterlimit:10;" width="12.0218" height="9.9108"/>
	<rect x="21.387" y="158.8951" style="fill:#825C43;" width="20.3008" height="5.0026"/>
</g>
<g>
	<rect x="54.0132" y="180.6323" style="fill:#231F20;stroke:#231F20;stroke-miterlimit:10;" width="12.0218" height="9.9108"/>
	<rect x="38.816" y="186.7731" style="fill:#825C43;" width="20.3008" height="5.0026"/>
</g>
<g>
	<g>
		<g>
			
				<ellipse transform="matrix(0.2113 -0.9774 0.9774 0.2113 -116.8544 323.9204)" style="fill:#231F20;stroke:#231F20;stroke-width:1;stroke-miterlimit:9.9999;" cx="142.288" cy="234.3682" rx="8.582" ry="33.1943"/>
			<line style="fill:none;stroke:#231F20;stroke-miterlimit:10;" x1="144.1076" y1="225.9953" x2="122.3428" y2="221.3139"/>
		</g>
		<circle style="fill:#231F20;stroke:#231F20;stroke-miterlimit:10;" cx="118.6398" cy="232.2691" r="11.4942"/>
		<line style="fill:none;stroke:#231F20;stroke-miterlimit:10;" x1="143.7052" y1="243.4259" x2="115.4194" y2="243.2915"/>
		
			<ellipse transform="matrix(0.9988 -0.0489 0.0489 0.9988 -11.5874 6.7614)" style="fill:#231F20;stroke:#231F20;stroke-width:1;stroke-miterlimit:9.9997;" cx="132.3921" cy="240.1981" rx="7.6428" ry="2.8098"/>
	</g>
	<g>
		
			<ellipse transform="matrix(0.5918 -0.8061 0.8061 0.5918 -159.2649 231.5582)" style="fill:#231F20;stroke:#231F20;stroke-width:1;stroke-miterlimit:10.0005;" cx="148.9975" cy="273.0299" rx="30.7504" ry="5.4389"/>
		<polygon style="fill:#231F20;stroke:#231F20;stroke-miterlimit:10.0004;" points="153.36,276.3479 144.7052,269.7563 
			166.9422,239.5009 175.5972,246.0927 		"/>
	</g>
	
		<rect x="122.7878" y="299.4571" transform="matrix(0.673 -0.7396 0.7396 0.673 -181.0401 192.5094)" style="fill:#231F20;stroke:#231F20;stroke-width:1;stroke-miterlimit:9.9991;" width="8.8389" height="3.1063"/>
	<g>
		
			<rect x="120.5327" y="302.7716" transform="matrix(0.8855 -0.4647 0.4647 0.8855 -130.274 92.9854)" style="fill:#231F20;stroke:#231F20;stroke-width:1;stroke-miterlimit:10.0005;" width="5.9504" height="16.031"/>
		
			<rect x="124.605" y="310.5168" transform="matrix(0.8855 -0.4647 0.4647 0.8855 -133.7541 95.1171)" style="fill:#231F20;stroke:#231F20;stroke-width:1;stroke-miterlimit:10.0005;" width="2.9753" height="16.7931"/>
	</g>
</g>
</svg>
